<?xml version="1.0" encoding="UTF-8"?>
<!DOCTYPE svg PUBLIC "-//W3C//DTD SVG 1.1//EN" "http://www.w3.org/Graphics/SVG/1.1/DTD/svg11.dtd">
<!-- Creator: CorelDRAW X7 -->
<svg xmlns="http://www.w3.org/2000/svg" xml:space="preserve" width="34.3797cm" height="21.5091cm" version="1.1" style="shape-rendering:geometricPrecision; text-rendering:geometricPrecision; image-rendering:optimizeQuality; fill-rule:evenodd; clip-rule:evenodd"
viewBox="0 0 496 311"
 xmlns:xlink="http://www.w3.org/1999/xlink">
 <defs>
  <style type="text/css">
   <![CDATA[
    .fil0 {fill:#005598}
   ]]>
  </style>
 </defs>
 <g id="Layer_x0020_1">
  <metadata id="CorelCorpID_0Corel-Layer"/>
  <g id="_1829155805264">
   <path class="fil0" d="M477 1c23,6 19,28 19,52l0 215c0,11 2,23 -4,31 -4,6 -12,13 -24,11 -8,-1 -37,-20 -46,-25 -15,-10 -29,-19 -44,-28 -36,-21 -74,-46 -110,-68l-22 -13c-6,-5 -12,-13 -10,-25 2,-11 8,-15 16,-20 65,-41 133,-82 199,-123 7,-4 15,-10 26,-7z"/>
   <path class="fil0" d="M242 1c23,6 19,28 19,52l0 215c0,11 1,23 -4,31 -4,6 -12,13 -24,11 -8,-1 -37,-20 -46,-25 -15,-10 -29,-19 -44,-28 -36,-21 -74,-46 -110,-68l-22 -13c-7,-5 -13,-13 -11,-25 2,-11 9,-15 16,-20 66,-41 134,-82 200,-123 7,-4 15,-10 26,-7z"/>
  </g>
 </g>
</svg>
