<?xml version="1.0" encoding="UTF-8"?>
<!DOCTYPE svg PUBLIC "-//W3C//DTD SVG 1.1//EN" "http://www.w3.org/Graphics/SVG/1.1/DTD/svg11.dtd">
<!-- Creator: CorelDRAW X7 -->
<svg xmlns="http://www.w3.org/2000/svg" xml:space="preserve" width="21.1553cm" height="28.2125cm" version="1.1" style="shape-rendering:geometricPrecision; text-rendering:geometricPrecision; image-rendering:optimizeQuality; fill-rule:evenodd; clip-rule:evenodd"
viewBox="0 0 356 474"
 xmlns:xlink="http://www.w3.org/1999/xlink">
 <defs>
  <style type="text/css">
   <![CDATA[
    .fil0 {fill:#C5C6C6}
   ]]>
  </style>
 </defs>
 <g id="Layer_x0020_1">
  <metadata id="CorelCorpID_0Corel-Layer"/>
  <g id="_1829309878496">
   <path class="fil0" d="M323 132l-291 0c-9,0 -16,7 -16,16l0 249c0,43 35,77 77,77l169 0c43,0 77,-34 77,-77l0 -249c0,-9 -7,-16 -16,-16zm-184 246c0,11 -8,20 -19,20 -11,0 -20,-9 -20,-20l0 -150c0,-10 9,-19 20,-19 11,0 19,9 19,19l0 150zm116 0c0,11 -8,20 -19,20 -11,0 -20,-9 -20,-20l0 -150c0,-10 9,-19 20,-19 11,0 19,9 19,19l0 150z"/>
   <path class="fil0" d="M307 25l-69 0 0 -6c0,-11 -9,-19 -19,-19l-82 0c-11,0 -19,8 -19,19l0 6 -70 0c-26,0 -48,21 -48,48l0 31c0,6 4,10 10,10l336 0c5,0 10,-4 10,-10l0 -31c0,-27 -22,-48 -49,-48z"/>
  </g>
 </g>
</svg>
