<?xml version="1.0" encoding="utf-8"?>
<!-- Svg Vector Icons : http://www.onlinewebfonts.com/icon -->
<!DOCTYPE svg PUBLIC "-//W3C//DTD SVG 1.1//EN" "http://www.w3.org/Graphics/SVG/1.1/DTD/svg11.dtd">
<svg version="1.1" xmlns="http://www.w3.org/2000/svg" xmlns:xlink="http://www.w3.org/1999/xlink" x="0px" y="0px" viewBox="0 0 1000 1000" enable-background="new 0 0 1000 1000" xml:space="preserve">
<metadata> Svg Vector Icons : http://www.onlinewebfonts.com/icon </metadata>
<g><path d="M231.6,10h484.8c30.1,0,57.4,12.3,77.2,32.1c19.8,19.8,32.1,47.1,32.1,77.2V351l-46,45.5V119.3c0-17.4-7.1-33.2-18.6-44.7C749.6,63.1,733.8,56,716.4,56h-423l67.2,57.9c9.6,8.3,10.6,22.8,2.4,32.4l-0.5,0.5L129.9,425.8v427.4c0,17.4,7.1,33.2,18.6,44.7c11.5,11.5,27.3,18.6,44.7,18.6h138.6l-16.2,46H193.2c-30.1,0-57.4-12.3-77.2-32.1c-19.8-19.8-32.1-47.2-32.1-77.2V417.6c0-3.1,0.6-6.1,1.8-8.9l124-382.4c0.4-1.4,1-2.8,1.7-4.2v0l0.2-0.3l0.1-0.1l0.2-0.4l0,0c1.2-2,2.7-3.8,4.4-5.3l0.1,0l0.2-0.1l0.2-0.2l0.1-0.1l0.4-0.3v0l0.4-0.2c2-1.6,4.3-2.8,6.6-3.6l0.4-0.1l0.4-0.1l0.1,0l0.3-0.1l0.2-0.1l0.1,0c0.4-0.1,0.7-0.2,1-0.2l0,0l0.4-0.1h0.1C228.6,10.2,230.1,10.1,231.6,10L231.6,10L231.6,10z M221,638.5v36.9h239.6v-36.9H221L221,638.5z M221,538.5v36.9h239.6v-36.9H221L221,538.5z M221,444.2v36.9h479.2v-36.9H221L221,444.2z M468.5,330.1V367h231.7v-36.9H468.5L468.5,330.1z M468.5,228.3v36.9h231.7v-36.9H468.5L468.5,228.3z M468.5,135.3v36.9h231.7v-36.9H468.5L468.5,135.3z M804.3,443.1L431.7,815.6l111.8,111.8l372.6-372.6L804.3,443.1L804.3,443.1z M417.4,832.9L374.8,954l36,36l117.1-46.7L417.4,832.9L417.4,832.9z M825.7,722.3l-46,45.5v85.4c0,17.4-7.1,33.2-18.6,44.7c-11.5,11.5-27.3,18.6-44.7,18.6h-87l-26.8,26.6l19.4,19.4h94.4c30.1,0,57.4-12.3,77.2-32.1c19.8-19.8,32.1-47.2,32.1-77.2V722.3L825.7,722.3z M165.4,311.8l148.2-177.8l-70.8-61L165.4,311.8z"/></g>
</svg>