<?xml version="1.0" encoding="UTF-8"?>
<!DOCTYPE svg PUBLIC "-//W3C//DTD SVG 1.1//EN" "http://www.w3.org/Graphics/SVG/1.1/DTD/svg11.dtd">
<!-- Creator: CorelDRAW X7 -->
<svg xmlns="http://www.w3.org/2000/svg" xml:space="preserve" width="34.3797cm" height="21.5091cm" version="1.1" style="shape-rendering:geometricPrecision; text-rendering:geometricPrecision; image-rendering:optimizeQuality; fill-rule:evenodd; clip-rule:evenodd"
viewBox="0 0 647 405"
 xmlns:xlink="http://www.w3.org/1999/xlink">
 <defs>
  <style type="text/css">
   <![CDATA[
    .fil0 {fill:#005598}
   ]]>
  </style>
 </defs>
 <g id="Layer_x0020_1">
  <metadata id="CorelCorpID_0Corel-Layer"/>
  <g id="_1829309871520">
   <path class="fil0" d="M25 1c-30,8 -25,36 -25,68l0 280c0,15 -2,30 6,41 5,8 15,16 31,14 11,-1 48,-26 60,-33 19,-12 37,-24 57,-36 47,-28 97,-61 144,-88l28 -18c8,-6 16,-17 14,-32 -3,-15 -11,-20 -21,-26 -85,-54 -174,-107 -260,-160 -9,-6 -20,-14 -34,-10z"/>
   <path class="fil0" d="M331 1c-30,8 -24,36 -24,68l0 280c0,15 -2,30 5,41 5,8 16,16 31,14 11,-1 48,-26 60,-33 20,-12 38,-24 58,-36 47,-28 96,-61 143,-88l29 -18c8,-6 16,-17 13,-32 -2,-15 -11,-20 -21,-26 -85,-54 -174,-107 -259,-160 -9,-6 -20,-14 -35,-10z"/>
  </g>
 </g>
</svg>
