<?xml version="1.0" encoding="UTF-8"?>
<!DOCTYPE svg PUBLIC "-//W3C//DTD SVG 1.1//EN" "http://www.w3.org/Graphics/SVG/1.1/DTD/svg11.dtd">
<!-- Creator: CorelDRAW X7 -->
<svg xmlns="http://www.w3.org/2000/svg" xml:space="preserve" width="32.6268cm" height="32.6272cm" version="1.1" style="shape-rendering:geometricPrecision; text-rendering:geometricPrecision; image-rendering:optimizeQuality; fill-rule:evenodd; clip-rule:evenodd"
viewBox="0 0 687 687"
 xmlns:xlink="http://www.w3.org/1999/xlink">
 <defs>
  <style type="text/css">
   <![CDATA[
    .fil0 {fill:#D9DADA}
   ]]>
  </style>
 </defs>
 <g id="Layer_x0020_1">
  <metadata id="CorelCorpID_0Corel-Layer"/>
  <g id="_1794092241440">
   <path class="fil0" d="M449 0l-211 0c-56,0 -112,20 -156,58l0 -31c0,-15 -12,-27 -27,-27 -15,0 -27,12 -27,27l0 105c0,15 12,27 27,27l106 0c14,0 26,-12 26,-27 0,-14 -12,-26 -26,-26l-51 0c34,-33 80,-52 128,-52l211 0c102,0 184,82 184,184l0 211c0,102 -82,184 -184,184l-211 0c-102,0 -184,-82 -184,-184l0 -105c0,-15 -12,-27 -27,-27 -15,0 -27,12 -27,27l0 105c0,131 107,238 238,238l211 0c131,0 238,-107 238,-238l0 -211c0,-131 -107,-238 -238,-238l0 0z"/>
   <path class="fil0" d="M376 182l0 180 120 120c12,12 12,33 0,46 -13,13 -34,13 -47,0l-129 -129c-6,-6 -9,-15 -9,-23l0 -194c0,-18 14,-32 33,-32 18,0 32,14 32,32z"/>
  </g>
 </g>
</svg>
