<?xml version="1.0" encoding="UTF-8"?>
<!DOCTYPE svg PUBLIC "-//W3C//DTD SVG 1.1//EN" "http://www.w3.org/Graphics/SVG/1.1/DTD/svg11.dtd">
<!-- Creator: CorelDRAW X7 -->
<svg xmlns="http://www.w3.org/2000/svg" xml:space="preserve" width="56.0784cm" height="48.1423cm" version="1.1" style="shape-rendering:geometricPrecision; text-rendering:geometricPrecision; image-rendering:optimizeQuality; fill-rule:evenodd; clip-rule:evenodd"
viewBox="0 0 17840 15315"
 xmlns:xlink="http://www.w3.org/1999/xlink">
 <defs>
  <style type="text/css">
   <![CDATA[
    .fil0 {fill:black}
   ]]>
  </style>
 </defs>
 <g id="Layer_x0020_1">
  <metadata id="CorelCorpID_0Corel-Layer"/>
  <g id="_1829298640608">
   <g>
    <g>
     <path class="fil0" d="M7574 13393c132,-179 203,-394 203,-620 0,-577 -470,-1047 -1047,-1047l-5085 0c-280,0 -543,109 -740,306 -198,198 -307,461 -307,741 0,232 76,446 204,620 -476,250 -802,750 -802,1324l0 299c0,165 134,299 299,299l7777 0c165,0 299,-134 299,-299l0 -299c0,-574 -325,-1074 -801,-1324zm-6246 -938c85,-84 197,-131 317,-131l5085 0c248,0 449,201 449,449 0,120 -47,232 -132,317 -84,85 -197,131 -317,131l-5085 0c-247,0 -449,-201 -449,-448 0,-120 47,-233 132,-318zm-730 2262c0,-495 403,-897 898,-897l149 0 5085 0 150 0c495,0 897,402 897,897l-7179 0z"/>
    </g>
   </g>
   <g>
    <g>
     <path class="fil0" d="M17562 12567c-102,-157 -223,-297 -361,-414l-1397 -1219c-11,-16 -24,-32 -38,-46 -25,-24 -52,-43 -81,-58l-846 -737 -3912 -3412c160,-168 248,-387 248,-620 0,-240 -93,-465 -263,-635 -74,-73 -158,-132 -248,-174l362 -362c101,27 205,41 309,41 307,0 613,-117 846,-350 226,-226 351,-527 351,-846 0,-320 -125,-620 -351,-846l-2538 -2538c-226,-227 -526,-351 -846,-351 -319,0 -620,124 -846,351 -312,312 -415,756 -309,1155l-3611 3611c-100,-27 -204,-41 -310,-41 -320,0 -620,125 -846,351 -466,466 -466,1225 0,1692l2538 2538c233,233 540,350 846,350 307,0 613,-117 846,-350 313,-313 416,-756 310,-1155l361 -362c43,91 102,175 175,248 170,169 395,263 635,263 232,0 451,-88 619,-248l4167 4787c11,18 25,35 40,51 6,5 11,10 17,15l1242 1427c31,36 64,72 98,106 341,341 791,526 1264,526 84,0 168,-5 252,-17 563,-78 1050,-415 1336,-925 312,-558 289,-1267 -59,-1806zm-9188 -11793c113,-113 263,-176 423,-176 160,0 310,63 423,176l2538 2538c113,113 176,263 176,423 0,159 -63,310 -176,423 -233,233 -612,233 -846,0l-2538 -2538c0,0 0,-1 0,-1 -233,-233 -233,-612 0,-845zm-1692 8460c-233,233 -613,233 -846,0l-2538 -2538c-233,-234 -233,-613 0,-846 113,-113 263,-175 423,-175 160,0 310,62 423,174l2538 2539c234,233 234,613 0,846zm1260 -2106l-837 837 -2538 -2538 3384 -3385 2538 2539 -838 838c-2,2 -5,5 -8,8l-1691 1691c-3,3 -7,7 -10,10zm1068 624c-1,1 -1,2 -2,2l-211 211c-56,56 -131,87 -211,87 -80,0 -155,-31 -212,-87 -56,-57 -88,-132 -88,-212 0,-78 30,-152 85,-207l1699 -1700c116,-113 304,-111 419,4 57,56 88,131 88,211 0,80 -31,155 -88,212l-209 209c-1,2 -3,3 -4,4l-1266 1266zm619 227l874 -874 3702 3228 -1351 1351 -3225 -3705zm3619 4158l1409 -1409 452 394 -1467 1467 -394 -452zm3851 1944c-193,345 -520,572 -896,624 -375,52 -744,-71 -1011,-339 -23,-23 -45,-47 -66,-71 -1,-1 -2,-2 -3,-3l-1088 -1251 1526 -1525 1248 1089c1,1 2,2 3,3 94,79 177,175 247,284 226,349 242,827 40,1189z"/>
    </g>
   </g>
  </g>
 </g>
</svg>
