<?xml version="1.0" encoding="UTF-8"?>
<!DOCTYPE svg PUBLIC "-//W3C//DTD SVG 1.1//EN" "http://www.w3.org/Graphics/SVG/1.1/DTD/svg11.dtd">
<!-- Creator: CorelDRAW X7 -->
<svg xmlns="http://www.w3.org/2000/svg" xml:space="preserve" width="56.0893cm" height="42.7243cm" version="1.1" style="shape-rendering:geometricPrecision; text-rendering:geometricPrecision; image-rendering:optimizeQuality; fill-rule:evenodd; clip-rule:evenodd"
viewBox="0 0 2507 1910"
 xmlns:xlink="http://www.w3.org/1999/xlink">
 <defs>
  <style type="text/css">
   <![CDATA[
    .fil0 {fill:#005598}
   ]]>
  </style>
 </defs>
 <g id="Layer_x0020_1">
  <metadata id="CorelCorpID_0Corel-Layer"/>
  <g id="_1829309877984">
   <g>
    <g>
     <path class="fil0" d="M2287 0l-1479 0c-121,0 -220,99 -220,220 0,122 99,221 220,221l1479 0c122,0 220,-99 220,-221 0,-121 -98,-220 -220,-220z"/>
    </g>
   </g>
   <g>
    <g>
     <path class="fil0" d="M2287 735l-1479 0c-121,0 -220,98 -220,220 0,122 99,220 220,220l1479 0c122,0 220,-98 220,-220 0,-122 -98,-220 -220,-220z"/>
    </g>
   </g>
   <g>
    <g>
     <path class="fil0" d="M2287 1469l-1479 0c-121,0 -220,99 -220,221 0,121 99,220 220,220l1479 0c122,0 220,-99 220,-220 0,-122 -98,-221 -220,-221z"/>
    </g>
   </g>
   <g>
    <g>
     <path class="fil0" d="M220 0c-121,0 -220,99 -220,220 0,122 99,221 220,221 122,0 221,-99 221,-221 0,-121 -99,-220 -221,-220z"/>
    </g>
   </g>
   <g>
    <g>
     <path class="fil0" d="M220 735c-121,0 -220,98 -220,220 0,122 99,220 220,220 122,0 221,-98 221,-220 0,-122 -99,-220 -221,-220z"/>
    </g>
   </g>
   <g>
    <g>
     <path class="fil0" d="M220 1469c-121,0 -220,99 -220,221 0,121 99,220 220,220 122,0 221,-99 221,-220 0,-122 -99,-221 -221,-221z"/>
    </g>
   </g>
   <g>
   </g>
   <g>
   </g>
   <g>
   </g>
   <g>
   </g>
   <g>
   </g>
   <g>
   </g>
   <g>
   </g>
   <g>
   </g>
   <g>
   </g>
   <g>
   </g>
   <g>
   </g>
   <g>
   </g>
   <g>
   </g>
   <g>
   </g>
   <g>
   </g>
  </g>
 </g>
</svg>
