<?xml version="1.0" encoding="UTF-8"?>
<!DOCTYPE svg PUBLIC "-//W3C//DTD SVG 1.1//EN" "http://www.w3.org/Graphics/SVG/1.1/DTD/svg11.dtd">
<!-- Creator: CorelDRAW X7 -->
<svg xmlns="http://www.w3.org/2000/svg" xml:space="preserve" width="152.687cm" height="152.687cm" version="1.1" style="shape-rendering:geometricPrecision; text-rendering:geometricPrecision; image-rendering:optimizeQuality; fill-rule:evenodd; clip-rule:evenodd"
viewBox="0 0 13537 13537"
 xmlns:xlink="http://www.w3.org/1999/xlink">
 <defs>
  <style type="text/css">
   <![CDATA[
    .fil0 {fill:#D9DADA}
   ]]>
  </style>
 </defs>
 <g id="Layer_x0020_1">
  <metadata id="CorelCorpID_0Corel-Layer"/>
  <path class="fil0" d="M11554 1982c-1278,-1278 -2978,-1982 -4786,-1982 -1808,0 -3507,704 -4786,1982 -1278,1279 -1982,2978 -1982,4786 0,1808 704,3508 1982,4786 1279,1279 2978,1983 4786,1983 1238,0 2449,-338 3502,-976 250,-151 330,-476 179,-726 -152,-250 -477,-330 -726,-178 -889,538 -1910,822 -2955,822 -3149,0 -5710,-2562 -5710,-5711 0,-3149 2561,-5710 5710,-5710 3149,0 5711,2561 5711,5710 0,1126 -335,2222 -968,3170 -163,243 -97,571 145,733 243,163 572,97 734,-145 750,-1122 1147,-2422 1147,-3758 0,-1808 -704,-3507 -1983,-4786z"/>
  <circle class="fil0" cx="6768" cy="6768" r="968"/>
  <circle class="fil0" cx="9673" cy="6768" r="968"/>
  <circle class="fil0" cx="3864" cy="6768" r="968"/>
 </g>
</svg>
