<?xml version="1.0" encoding="UTF-8"?>
<!DOCTYPE svg PUBLIC "-//W3C//DTD SVG 1.1//EN" "http://www.w3.org/Graphics/SVG/1.1/DTD/svg11.dtd">
<!-- Creator: CorelDRAW X7 -->
<svg xmlns="http://www.w3.org/2000/svg" xml:space="preserve" width="14.7476cm" height="17.5352cm" version="1.1" style="shape-rendering:geometricPrecision; text-rendering:geometricPrecision; image-rendering:optimizeQuality; fill-rule:evenodd; clip-rule:evenodd"
viewBox="0 0 1486 1767"
 xmlns:xlink="http://www.w3.org/1999/xlink">
 <defs>
  <style type="text/css">
   <![CDATA[
    .fil0 {fill:#005598}
   ]]>
  </style>
 </defs>
 <g id="Layer_x0020_1">
  <metadata id="CorelCorpID_0Corel-Layer"/>
  <path class="fil0" d="M109 5c-132,36 -107,159 -107,297l0 1221c0,65 -9,131 23,180 23,35 68,72 136,63 48,-6 210,-115 260,-146 87,-53 166,-104 252,-156 207,-124 421,-265 627,-387l125 -78c36,-27 71,-74 59,-140 -11,-64 -48,-84 -91,-112 -373,-235 -761,-465 -1133,-700 -40,-25 -88,-60 -151,-42z"/>
 </g>
</svg>
