<?xml version="1.0" encoding="UTF-8"?>
<!DOCTYPE svg PUBLIC "-//W3C//DTD SVG 1.1//EN" "http://www.w3.org/Graphics/SVG/1.1/DTD/svg11.dtd">
<!-- Creator: CorelDRAW X7 -->
<svg xmlns="http://www.w3.org/2000/svg" xml:space="preserve" width="30.7479cm" height="30.7479cm" version="1.1" style="shape-rendering:geometricPrecision; text-rendering:geometricPrecision; image-rendering:optimizeQuality; fill-rule:evenodd; clip-rule:evenodd"
viewBox="0 0 614 614"
 xmlns:xlink="http://www.w3.org/1999/xlink">
 <defs>
  <style type="text/css">
   <![CDATA[
    .fil0 {fill:#005598}
   ]]>
  </style>
 </defs>
 <g id="Layer_x0020_1">
  <metadata id="CorelCorpID_0Corel-Layer"/>
  <path class="fil0" d="M307 0c170,0 307,137 307,307 0,170 -137,307 -307,307 -170,0 -307,-137 -307,-307 0,-170 137,-307 307,-307zm-61 188c-19,5 -16,23 -16,43l0 175c0,10 -1,19 4,26 3,5 9,11 19,9 7,0 30,-16 38,-21 12,-7 23,-15 36,-22 30,-18 61,-38 90,-56l18 -11c5,-4 10,-11 9,-20 -2,-9 -7,-12 -14,-16 -53,-34 -109,-67 -163,-101 -5,-4 -12,-9 -21,-6z"/>
 </g>
</svg>
