<?xml version="1.0" encoding="UTF-8"?>
<!DOCTYPE svg PUBLIC "-//W3C//DTD SVG 1.1//EN" "http://www.w3.org/Graphics/SVG/1.1/DTD/svg11.dtd">
<!-- Creator: CorelDRAW X7 -->
<svg xmlns="http://www.w3.org/2000/svg" xml:space="preserve" width="29.3195cm" height="32.251cm" version="1.1" style="shape-rendering:geometricPrecision; text-rendering:geometricPrecision; image-rendering:optimizeQuality; fill-rule:evenodd; clip-rule:evenodd"
viewBox="0 0 361 397"
 xmlns:xlink="http://www.w3.org/1999/xlink">
 <defs>
  <style type="text/css">
   <![CDATA[
    .fil0 {fill:#005598}
   ]]>
  </style>
 </defs>
 <g id="Layer_x0020_1">
  <metadata id="CorelCorpID_0Corel-Layer"/>
  <g id="_1829300927984">
   <g>
    <g>
     <path class="fil0" d="M343 217c-10,0 -18,8 -18,18 0,30 -24,54 -54,54l-145 0 0 -54c0,-7 -4,-13 -10,-16 -6,-3 -13,-3 -19,2l-90 72c-5,3 -7,9 -7,14 0,6 2,11 7,14l90 72c3,3 7,4 11,4 3,0 6,0 8,-1 6,-3 10,-10 10,-17l0 -54 145 0c50,0 90,-40 90,-90 0,-10 -8,-18 -18,-18z"/>
     <path class="fil0" d="M18 181c10,0 18,-8 18,-18 0,-30 24,-55 54,-55l145 0 0 55c0,6 4,13 10,16 3,1 5,2 8,2 4,0 8,-2 11,-4l90 -73c5,-3 7,-8 7,-14 0,-5 -2,-10 -7,-14l-90 -72c-5,-4 -13,-5 -19,-2 -6,3 -10,9 -10,16l0 54 -145 0c-49,0 -90,41 -90,91 0,10 8,18 18,18z"/>
    </g>
   </g>
  </g>
 </g>
</svg>
