<?xml version="1.0" encoding="UTF-8"?>
<!DOCTYPE svg PUBLIC "-//W3C//DTD SVG 1.1//EN" "http://www.w3.org/Graphics/SVG/1.1/DTD/svg11.dtd">
<!-- Creator: CorelDRAW X7 -->
<svg xmlns="http://www.w3.org/2000/svg" xml:space="preserve" width="39.4029cm" height="42.0298cm" version="1.1" style="shape-rendering:geometricPrecision; text-rendering:geometricPrecision; image-rendering:optimizeQuality; fill-rule:evenodd; clip-rule:evenodd"
viewBox="0 0 2158 2302"
 xmlns:xlink="http://www.w3.org/1999/xlink">
 <defs>
  <style type="text/css">
   <![CDATA[
    .fil0 {fill:#C5C6C6}
   ]]>
  </style>
 </defs>
 <g id="Layer_x0020_1">
  <metadata id="CorelCorpID_0Corel-Layer"/>
  <g id="_1829300871760">
   <path class="fil0" d="M1753 1493c-133,0 -250,65 -324,165l-638 -327c11,-36 18,-73 18,-113 0,-53 -11,-104 -30,-151l668 -401c74,87 183,143 306,143 224,0 405,-181 405,-404 0,-223 -181,-405 -405,-405 -223,0 -404,182 -404,405 0,51 10,100 28,145l-669 403c-75,-85 -182,-139 -303,-139 -223,0 -405,181 -405,404 0,224 182,405 405,405 135,0 255,-67 328,-170l636 326c-12,37 -20,77 -20,118 0,223 181,405 404,405 224,0 405,-182 405,-405 0,-223 -181,-404 -405,-404z"/>
  </g>
 </g>
</svg>
