<?xml version="1.0" encoding="UTF-8"?>
<!DOCTYPE svg PUBLIC "-//W3C//DTD SVG 1.1//EN" "http://www.w3.org/Graphics/SVG/1.1/DTD/svg11.dtd">
<!-- Creator: CorelDRAW X7 -->
<svg xmlns="http://www.w3.org/2000/svg" xml:space="preserve" width="45.4871cm" height="32.6261cm" version="1.1" style="shape-rendering:geometricPrecision; text-rendering:geometricPrecision; image-rendering:optimizeQuality; fill-rule:evenodd; clip-rule:evenodd"
viewBox="0 0 2063 1480"
 xmlns:xlink="http://www.w3.org/1999/xlink">
 <defs>
  <style type="text/css">
   <![CDATA[
    .fil0 {fill:#D9DADA}
   ]]>
  </style>
 </defs>
 <g id="Layer_x0020_1">
  <metadata id="CorelCorpID_0Corel-Layer"/>
  <g id="_1829309835968">
   <path class="fil0" d="M907 1c-34,0 -170,-1 -192,9 -53,23 -42,107 21,109 31,1 67,-2 98,-2 220,-5 470,-3 685,12 104,7 266,15 332,70 81,70 84,200 91,309 8,128 8,262 3,391 -4,109 -7,260 -58,341 -44,69 -124,85 -205,95 -32,4 -60,2 -80,22 -20,18 -24,48 -8,73 15,23 37,27 74,22 169,-19 298,-55 357,-243 30,-98 34,-254 36,-363 4,-141 3,-431 -34,-567 -14,-51 -40,-102 -67,-132 -68,-77 -147,-104 -283,-119 -250,-28 -517,-30 -770,-27z"/>
   <path class="fil0" d="M411 26c-109,11 -219,27 -294,106 -69,71 -94,168 -105,297 -16,176 -22,592 20,756 29,114 84,182 175,225 86,40 239,49 345,56 191,12 395,15 588,13 32,-1 65,-1 98,-2 26,0 74,1 98,-3 57,-11 64,-94 5,-111 -18,-6 -162,1 -194,1 -224,3 -552,-1 -771,-29 -133,-17 -199,-51 -232,-170 -26,-98 -27,-263 -29,-370 -2,-128 1,-261 14,-387 19,-188 79,-241 239,-262 24,-3 68,-5 84,-16 49,-31 27,-111 -41,-104z"/>
   <path class="fil0" d="M833 382c-53,15 -43,65 -43,121l0 497c0,27 -4,54 9,74 9,14 28,29 56,25 19,-2 85,-47 106,-59 35,-22 67,-42 102,-64 84,-50 171,-108 255,-157l51 -32c15,-11 29,-30 24,-57 -4,-26 -19,-35 -37,-46 -151,-96 -310,-189 -461,-285 -17,-10 -36,-24 -62,-17zm71 557l282 -173c12,-8 28,-16 40,-26 0,0 0,-1 0,-1 -1,1 -1,0 -1,-1 -1,0 -1,0 -1,-1l-278 -172c-7,-4 -13,-8 -20,-12 -7,-4 -14,-10 -22,-13l0 399z"/>
   <path class="fil0" d="M1472 1354c-78,18 -48,128 24,112 73,-16 49,-127 -24,-112z"/>
   <path class="fil0" d="M566 14c-76,21 -44,129 28,111 73,-19 43,-131 -28,-111z"/>
  </g>
 </g>
</svg>
